<svg xmlns="http://www.w3.org/2000/svg" width="760" height="930" viewBox="0 0 760 930">
<rect width="760" height="930" fill="#EEF0EA"/>
<text x="56" y="70" font-family="Helvetica Neue,Arial,sans-serif" font-size="30" font-weight="700" letter-spacing="1" fill="#171A16">FRET-HAND GLYPHS</text>
<text x="56" y="94" font-family="ui-monospace,Menlo,monospace" font-size="12.5" letter-spacing="1" fill="#8A9184">3×3 matrix · nut left · stroke = finger path, top string → bottom</text>
<line x1="56" y1="112" x2="704" y2="112" stroke="#171A16" stroke-width="1.4"/>
<text x="56" y="150" font-family="ui-monospace,Menlo,monospace" font-size="12" letter-spacing="3" fill="#1B4DB3">CORE SET — 11</text>
<circle cx="104.0" cy="204.0" r="1.6" fill="#C3CABF"/>
<circle cx="130.0" cy="204.0" r="1.6" fill="#C3CABF"/>
<circle cx="156.0" cy="204.0" r="1.6" fill="#C3CABF"/>
<circle cx="104.0" cy="230.0" r="1.6" fill="#C3CABF"/>
<circle cx="130.0" cy="230.0" r="1.6" fill="#C3CABF"/>
<circle cx="156.0" cy="230.0" r="1.6" fill="#C3CABF"/>
<circle cx="104.0" cy="256.0" r="1.6" fill="#C3CABF"/>
<circle cx="130.0" cy="256.0" r="1.6" fill="#C3CABF"/>
<circle cx="156.0" cy="256.0" r="1.6" fill="#C3CABF"/>
<path d="M 104.0 204.0 L 104.0 230.0 L 104.0 256.0" fill="none" stroke="#1B4DB3" stroke-width="5.0" stroke-linecap="round" stroke-linejoin="round"/>
<circle cx="104.0" cy="204.0" r="3.4" fill="#171A16"/>
<circle cx="104.0" cy="230.0" r="3.4" fill="#171A16"/>
<circle cx="104.0" cy="256.0" r="3.4" fill="#171A16"/>
<text x="130.0" y="278.0" text-anchor="middle" font-family="ui-monospace,Menlo,monospace" font-size="15" letter-spacing="2" fill="#171A16">000</text>
<text x="130.0" y="294.0" text-anchor="middle" font-family="Helvetica Neue,Arial,sans-serif" font-size="10.5" fill="#8A9184">line</text>
<circle cx="284.0" cy="204.0" r="1.6" fill="#C3CABF"/>
<circle cx="310.0" cy="204.0" r="1.6" fill="#C3CABF"/>
<circle cx="336.0" cy="204.0" r="1.6" fill="#C3CABF"/>
<circle cx="284.0" cy="230.0" r="1.6" fill="#C3CABF"/>
<circle cx="310.0" cy="230.0" r="1.6" fill="#C3CABF"/>
<circle cx="336.0" cy="230.0" r="1.6" fill="#C3CABF"/>
<circle cx="284.0" cy="256.0" r="1.6" fill="#C3CABF"/>
<circle cx="310.0" cy="256.0" r="1.6" fill="#C3CABF"/>
<circle cx="336.0" cy="256.0" r="1.6" fill="#C3CABF"/>
<path d="M 284.0 204.0 L 310.0 230.0 L 284.0 256.0" fill="none" stroke="#1B4DB3" stroke-width="5.0" stroke-linecap="round" stroke-linejoin="round"/>
<circle cx="284.0" cy="204.0" r="3.4" fill="#171A16"/>
<circle cx="310.0" cy="230.0" r="3.4" fill="#171A16"/>
<circle cx="284.0" cy="256.0" r="3.4" fill="#171A16"/>
<text x="310.0" y="278.0" text-anchor="middle" font-family="ui-monospace,Menlo,monospace" font-size="15" letter-spacing="2" fill="#171A16">010</text>
<text x="310.0" y="294.0" text-anchor="middle" font-family="Helvetica Neue,Arial,sans-serif" font-size="10.5" fill="#8A9184">point-right</text>
<circle cx="464.0" cy="204.0" r="1.6" fill="#C3CABF"/>
<circle cx="490.0" cy="204.0" r="1.6" fill="#C3CABF"/>
<circle cx="516.0" cy="204.0" r="1.6" fill="#C3CABF"/>
<circle cx="464.0" cy="230.0" r="1.6" fill="#C3CABF"/>
<circle cx="490.0" cy="230.0" r="1.6" fill="#C3CABF"/>
<circle cx="516.0" cy="230.0" r="1.6" fill="#C3CABF"/>
<circle cx="464.0" cy="256.0" r="1.6" fill="#C3CABF"/>
<circle cx="490.0" cy="256.0" r="1.6" fill="#C3CABF"/>
<circle cx="516.0" cy="256.0" r="1.6" fill="#C3CABF"/>
<path d="M 490.0 204.0 L 464.0 230.0 L 490.0 256.0" fill="none" stroke="#1B4DB3" stroke-width="5.0" stroke-linecap="round" stroke-linejoin="round"/>
<circle cx="490.0" cy="204.0" r="3.4" fill="#171A16"/>
<circle cx="464.0" cy="230.0" r="3.4" fill="#171A16"/>
<circle cx="490.0" cy="256.0" r="3.4" fill="#171A16"/>
<text x="490.0" y="278.0" text-anchor="middle" font-family="ui-monospace,Menlo,monospace" font-size="15" letter-spacing="2" fill="#171A16">101</text>
<text x="490.0" y="294.0" text-anchor="middle" font-family="Helvetica Neue,Arial,sans-serif" font-size="10.5" fill="#8A9184">point-left</text>
<circle cx="644.0" cy="204.0" r="1.6" fill="#C3CABF"/>
<circle cx="670.0" cy="204.0" r="1.6" fill="#C3CABF"/>
<circle cx="696.0" cy="204.0" r="1.6" fill="#C3CABF"/>
<circle cx="644.0" cy="230.0" r="1.6" fill="#C3CABF"/>
<circle cx="670.0" cy="230.0" r="1.6" fill="#C3CABF"/>
<circle cx="696.0" cy="230.0" r="1.6" fill="#C3CABF"/>
<circle cx="644.0" cy="256.0" r="1.6" fill="#C3CABF"/>
<circle cx="670.0" cy="256.0" r="1.6" fill="#C3CABF"/>
<circle cx="696.0" cy="256.0" r="1.6" fill="#C3CABF"/>
<path d="M 644.0 204.0 L 696.0 230.0 L 644.0 256.0" fill="none" stroke="#1B4DB3" stroke-width="5.0" stroke-linecap="round" stroke-linejoin="round"/>
<circle cx="644.0" cy="204.0" r="3.4" fill="#171A16"/>
<circle cx="696.0" cy="230.0" r="3.4" fill="#171A16"/>
<circle cx="644.0" cy="256.0" r="3.4" fill="#171A16"/>
<text x="670.0" y="278.0" text-anchor="middle" font-family="ui-monospace,Menlo,monospace" font-size="15" letter-spacing="2" fill="#171A16">020</text>
<text x="670.0" y="294.0" text-anchor="middle" font-family="Helvetica Neue,Arial,sans-serif" font-size="10.5" fill="#8A9184">wide-right</text>
<circle cx="104.0" cy="354.0" r="1.6" fill="#C3CABF"/>
<circle cx="130.0" cy="354.0" r="1.6" fill="#C3CABF"/>
<circle cx="156.0" cy="354.0" r="1.6" fill="#C3CABF"/>
<circle cx="104.0" cy="380.0" r="1.6" fill="#C3CABF"/>
<circle cx="130.0" cy="380.0" r="1.6" fill="#C3CABF"/>
<circle cx="156.0" cy="380.0" r="1.6" fill="#C3CABF"/>
<circle cx="104.0" cy="406.0" r="1.6" fill="#C3CABF"/>
<circle cx="130.0" cy="406.0" r="1.6" fill="#C3CABF"/>
<circle cx="156.0" cy="406.0" r="1.6" fill="#C3CABF"/>
<path d="M 156.0 354.0 L 104.0 380.0 L 156.0 406.0" fill="none" stroke="#1B4DB3" stroke-width="5.0" stroke-linecap="round" stroke-linejoin="round"/>
<circle cx="156.0" cy="354.0" r="3.4" fill="#171A16"/>
<circle cx="104.0" cy="380.0" r="3.4" fill="#171A16"/>
<circle cx="156.0" cy="406.0" r="3.4" fill="#171A16"/>
<text x="130.0" y="428.0" text-anchor="middle" font-family="ui-monospace,Menlo,monospace" font-size="15" letter-spacing="2" fill="#171A16">202</text>
<text x="130.0" y="444.0" text-anchor="middle" font-family="Helvetica Neue,Arial,sans-serif" font-size="10.5" fill="#8A9184">wide-left</text>
<circle cx="284.0" cy="354.0" r="1.6" fill="#C3CABF"/>
<circle cx="310.0" cy="354.0" r="1.6" fill="#C3CABF"/>
<circle cx="336.0" cy="354.0" r="1.6" fill="#C3CABF"/>
<circle cx="284.0" cy="380.0" r="1.6" fill="#C3CABF"/>
<circle cx="310.0" cy="380.0" r="1.6" fill="#C3CABF"/>
<circle cx="336.0" cy="380.0" r="1.6" fill="#C3CABF"/>
<circle cx="284.0" cy="406.0" r="1.6" fill="#C3CABF"/>
<circle cx="310.0" cy="406.0" r="1.6" fill="#C3CABF"/>
<circle cx="336.0" cy="406.0" r="1.6" fill="#C3CABF"/>
<path d="M 284.0 354.0 L 310.0 380.0 L 336.0 406.0" fill="none" stroke="#1B4DB3" stroke-width="5.0" stroke-linecap="round" stroke-linejoin="round"/>
<circle cx="284.0" cy="354.0" r="3.4" fill="#171A16"/>
<circle cx="310.0" cy="380.0" r="3.4" fill="#171A16"/>
<circle cx="336.0" cy="406.0" r="3.4" fill="#171A16"/>
<text x="310.0" y="428.0" text-anchor="middle" font-family="ui-monospace,Menlo,monospace" font-size="15" letter-spacing="2" fill="#171A16">012</text>
<text x="310.0" y="444.0" text-anchor="middle" font-family="Helvetica Neue,Arial,sans-serif" font-size="10.5" fill="#8A9184">down-slope</text>
<circle cx="464.0" cy="354.0" r="1.6" fill="#C3CABF"/>
<circle cx="490.0" cy="354.0" r="1.6" fill="#C3CABF"/>
<circle cx="516.0" cy="354.0" r="1.6" fill="#C3CABF"/>
<circle cx="464.0" cy="380.0" r="1.6" fill="#C3CABF"/>
<circle cx="490.0" cy="380.0" r="1.6" fill="#C3CABF"/>
<circle cx="516.0" cy="380.0" r="1.6" fill="#C3CABF"/>
<circle cx="464.0" cy="406.0" r="1.6" fill="#C3CABF"/>
<circle cx="490.0" cy="406.0" r="1.6" fill="#C3CABF"/>
<circle cx="516.0" cy="406.0" r="1.6" fill="#C3CABF"/>
<path d="M 516.0 354.0 L 490.0 380.0 L 464.0 406.0" fill="none" stroke="#1B4DB3" stroke-width="5.0" stroke-linecap="round" stroke-linejoin="round"/>
<circle cx="516.0" cy="354.0" r="3.4" fill="#171A16"/>
<circle cx="490.0" cy="380.0" r="3.4" fill="#171A16"/>
<circle cx="464.0" cy="406.0" r="3.4" fill="#171A16"/>
<text x="490.0" y="428.0" text-anchor="middle" font-family="ui-monospace,Menlo,monospace" font-size="15" letter-spacing="2" fill="#171A16">210</text>
<text x="490.0" y="444.0" text-anchor="middle" font-family="Helvetica Neue,Arial,sans-serif" font-size="10.5" fill="#8A9184">up-slope</text>
<circle cx="644.0" cy="354.0" r="1.6" fill="#C3CABF"/>
<circle cx="670.0" cy="354.0" r="1.6" fill="#C3CABF"/>
<circle cx="696.0" cy="354.0" r="1.6" fill="#C3CABF"/>
<circle cx="644.0" cy="380.0" r="1.6" fill="#C3CABF"/>
<circle cx="670.0" cy="380.0" r="1.6" fill="#C3CABF"/>
<circle cx="696.0" cy="380.0" r="1.6" fill="#C3CABF"/>
<circle cx="644.0" cy="406.0" r="1.6" fill="#C3CABF"/>
<circle cx="670.0" cy="406.0" r="1.6" fill="#C3CABF"/>
<circle cx="696.0" cy="406.0" r="1.6" fill="#C3CABF"/>
<path d="M 644.0 354.0 L 644.0 380.0 L 670.0 406.0" fill="none" stroke="#1B4DB3" stroke-width="5.0" stroke-linecap="round" stroke-linejoin="round"/>
<circle cx="644.0" cy="354.0" r="3.4" fill="#171A16"/>
<circle cx="644.0" cy="380.0" r="3.4" fill="#171A16"/>
<circle cx="670.0" cy="406.0" r="3.4" fill="#171A16"/>
<text x="670.0" y="428.0" text-anchor="middle" font-family="ui-monospace,Menlo,monospace" font-size="15" letter-spacing="2" fill="#171A16">001</text>
<text x="670.0" y="444.0" text-anchor="middle" font-family="Helvetica Neue,Arial,sans-serif" font-size="10.5" fill="#8A9184">low-kick R</text>
<circle cx="104.0" cy="504.0" r="1.6" fill="#C3CABF"/>
<circle cx="130.0" cy="504.0" r="1.6" fill="#C3CABF"/>
<circle cx="156.0" cy="504.0" r="1.6" fill="#C3CABF"/>
<circle cx="104.0" cy="530.0" r="1.6" fill="#C3CABF"/>
<circle cx="130.0" cy="530.0" r="1.6" fill="#C3CABF"/>
<circle cx="156.0" cy="530.0" r="1.6" fill="#C3CABF"/>
<circle cx="104.0" cy="556.0" r="1.6" fill="#C3CABF"/>
<circle cx="130.0" cy="556.0" r="1.6" fill="#C3CABF"/>
<circle cx="156.0" cy="556.0" r="1.6" fill="#C3CABF"/>
<path d="M 130.0 504.0 L 130.0 530.0 L 104.0 556.0" fill="none" stroke="#1B4DB3" stroke-width="5.0" stroke-linecap="round" stroke-linejoin="round"/>
<circle cx="130.0" cy="504.0" r="3.4" fill="#171A16"/>
<circle cx="130.0" cy="530.0" r="3.4" fill="#171A16"/>
<circle cx="104.0" cy="556.0" r="3.4" fill="#171A16"/>
<text x="130.0" y="578.0" text-anchor="middle" font-family="ui-monospace,Menlo,monospace" font-size="15" letter-spacing="2" fill="#171A16">110</text>
<text x="130.0" y="594.0" text-anchor="middle" font-family="Helvetica Neue,Arial,sans-serif" font-size="10.5" fill="#8A9184">low-kick L</text>
<circle cx="284.0" cy="504.0" r="1.6" fill="#C3CABF"/>
<circle cx="310.0" cy="504.0" r="1.6" fill="#C3CABF"/>
<circle cx="336.0" cy="504.0" r="1.6" fill="#C3CABF"/>
<circle cx="284.0" cy="530.0" r="1.6" fill="#C3CABF"/>
<circle cx="310.0" cy="530.0" r="1.6" fill="#C3CABF"/>
<circle cx="336.0" cy="530.0" r="1.6" fill="#C3CABF"/>
<circle cx="284.0" cy="556.0" r="1.6" fill="#C3CABF"/>
<circle cx="310.0" cy="556.0" r="1.6" fill="#C3CABF"/>
<circle cx="336.0" cy="556.0" r="1.6" fill="#C3CABF"/>
<path d="M 310.0 504.0 L 284.0 530.0 L 284.0 556.0" fill="none" stroke="#1B4DB3" stroke-width="5.0" stroke-linecap="round" stroke-linejoin="round"/>
<circle cx="310.0" cy="504.0" r="3.4" fill="#171A16"/>
<circle cx="284.0" cy="530.0" r="3.4" fill="#171A16"/>
<circle cx="284.0" cy="556.0" r="3.4" fill="#171A16"/>
<text x="310.0" y="578.0" text-anchor="middle" font-family="ui-monospace,Menlo,monospace" font-size="15" letter-spacing="2" fill="#171A16">100</text>
<text x="310.0" y="594.0" text-anchor="middle" font-family="Helvetica Neue,Arial,sans-serif" font-size="10.5" fill="#8A9184">high-kick R</text>
<circle cx="464.0" cy="504.0" r="1.6" fill="#C3CABF"/>
<circle cx="490.0" cy="504.0" r="1.6" fill="#C3CABF"/>
<circle cx="516.0" cy="504.0" r="1.6" fill="#C3CABF"/>
<circle cx="464.0" cy="530.0" r="1.6" fill="#C3CABF"/>
<circle cx="490.0" cy="530.0" r="1.6" fill="#C3CABF"/>
<circle cx="516.0" cy="530.0" r="1.6" fill="#C3CABF"/>
<circle cx="464.0" cy="556.0" r="1.6" fill="#C3CABF"/>
<circle cx="490.0" cy="556.0" r="1.6" fill="#C3CABF"/>
<circle cx="516.0" cy="556.0" r="1.6" fill="#C3CABF"/>
<path d="M 464.0 504.0 L 490.0 530.0 L 490.0 556.0" fill="none" stroke="#1B4DB3" stroke-width="5.0" stroke-linecap="round" stroke-linejoin="round"/>
<circle cx="464.0" cy="504.0" r="3.4" fill="#171A16"/>
<circle cx="490.0" cy="530.0" r="3.4" fill="#171A16"/>
<circle cx="490.0" cy="556.0" r="3.4" fill="#171A16"/>
<text x="490.0" y="578.0" text-anchor="middle" font-family="ui-monospace,Menlo,monospace" font-size="15" letter-spacing="2" fill="#171A16">011</text>
<text x="490.0" y="594.0" text-anchor="middle" font-family="Helvetica Neue,Arial,sans-serif" font-size="10.5" fill="#8A9184">high-kick L</text>
<line x1="56" y1="632" x2="704" y2="632" stroke="#C3CABF" stroke-width="1"/>
<text x="56" y="668" font-family="ui-monospace,Menlo,monospace" font-size="12" letter-spacing="3" fill="#8A9184">EXTENDED — 8 (stretches; call by code)</text>
<circle cx="109.2" cy="709.2" r="1.3" fill="#C3CABF"/>
<circle cx="130.0" cy="709.2" r="1.3" fill="#C3CABF"/>
<circle cx="150.8" cy="709.2" r="1.3" fill="#C3CABF"/>
<circle cx="109.2" cy="730.0" r="1.3" fill="#C3CABF"/>
<circle cx="130.0" cy="730.0" r="1.3" fill="#C3CABF"/>
<circle cx="150.8" cy="730.0" r="1.3" fill="#C3CABF"/>
<circle cx="109.2" cy="750.8" r="1.3" fill="#C3CABF"/>
<circle cx="130.0" cy="750.8" r="1.3" fill="#C3CABF"/>
<circle cx="150.8" cy="750.8" r="1.3" fill="#C3CABF"/>
<path d="M 150.8 709.2 L 109.2 730.0 L 109.2 750.8" fill="none" stroke="#1B4DB3" stroke-width="4.0" stroke-linecap="round" stroke-linejoin="round"/>
<circle cx="150.8" cy="709.2" r="2.7" fill="#171A16"/>
<circle cx="109.2" cy="730.0" r="2.7" fill="#171A16"/>
<circle cx="109.2" cy="750.8" r="2.7" fill="#171A16"/>
<text x="130.0" y="768.4" text-anchor="middle" font-family="ui-monospace,Menlo,monospace" font-size="12" letter-spacing="2" fill="#171A16">200</text>
<text x="130.0" y="781.2" text-anchor="middle" font-family="Helvetica Neue,Arial,sans-serif" font-size="9.5" fill="#8A9184">reach-hi R</text>
<circle cx="289.2" cy="709.2" r="1.3" fill="#C3CABF"/>
<circle cx="310.0" cy="709.2" r="1.3" fill="#C3CABF"/>
<circle cx="330.8" cy="709.2" r="1.3" fill="#C3CABF"/>
<circle cx="289.2" cy="730.0" r="1.3" fill="#C3CABF"/>
<circle cx="310.0" cy="730.0" r="1.3" fill="#C3CABF"/>
<circle cx="330.8" cy="730.0" r="1.3" fill="#C3CABF"/>
<circle cx="289.2" cy="750.8" r="1.3" fill="#C3CABF"/>
<circle cx="310.0" cy="750.8" r="1.3" fill="#C3CABF"/>
<circle cx="330.8" cy="750.8" r="1.3" fill="#C3CABF"/>
<path d="M 289.2 709.2 L 330.8 730.0 L 330.8 750.8" fill="none" stroke="#1B4DB3" stroke-width="4.0" stroke-linecap="round" stroke-linejoin="round"/>
<circle cx="289.2" cy="709.2" r="2.7" fill="#171A16"/>
<circle cx="330.8" cy="730.0" r="2.7" fill="#171A16"/>
<circle cx="330.8" cy="750.8" r="2.7" fill="#171A16"/>
<text x="310.0" y="768.4" text-anchor="middle" font-family="ui-monospace,Menlo,monospace" font-size="12" letter-spacing="2" fill="#171A16">022</text>
<text x="310.0" y="781.2" text-anchor="middle" font-family="Helvetica Neue,Arial,sans-serif" font-size="9.5" fill="#8A9184">reach-hi L</text>
<circle cx="469.2" cy="709.2" r="1.3" fill="#C3CABF"/>
<circle cx="490.0" cy="709.2" r="1.3" fill="#C3CABF"/>
<circle cx="510.8" cy="709.2" r="1.3" fill="#C3CABF"/>
<circle cx="469.2" cy="730.0" r="1.3" fill="#C3CABF"/>
<circle cx="490.0" cy="730.0" r="1.3" fill="#C3CABF"/>
<circle cx="510.8" cy="730.0" r="1.3" fill="#C3CABF"/>
<circle cx="469.2" cy="750.8" r="1.3" fill="#C3CABF"/>
<circle cx="490.0" cy="750.8" r="1.3" fill="#C3CABF"/>
<circle cx="510.8" cy="750.8" r="1.3" fill="#C3CABF"/>
<path d="M 469.2 709.2 L 469.2 730.0 L 510.8 750.8" fill="none" stroke="#1B4DB3" stroke-width="4.0" stroke-linecap="round" stroke-linejoin="round"/>
<circle cx="469.2" cy="709.2" r="2.7" fill="#171A16"/>
<circle cx="469.2" cy="730.0" r="2.7" fill="#171A16"/>
<circle cx="510.8" cy="750.8" r="2.7" fill="#171A16"/>
<text x="490.0" y="768.4" text-anchor="middle" font-family="ui-monospace,Menlo,monospace" font-size="12" letter-spacing="2" fill="#171A16">002</text>
<text x="490.0" y="781.2" text-anchor="middle" font-family="Helvetica Neue,Arial,sans-serif" font-size="9.5" fill="#8A9184">reach-lo R</text>
<circle cx="649.2" cy="709.2" r="1.3" fill="#C3CABF"/>
<circle cx="670.0" cy="709.2" r="1.3" fill="#C3CABF"/>
<circle cx="690.8" cy="709.2" r="1.3" fill="#C3CABF"/>
<circle cx="649.2" cy="730.0" r="1.3" fill="#C3CABF"/>
<circle cx="670.0" cy="730.0" r="1.3" fill="#C3CABF"/>
<circle cx="690.8" cy="730.0" r="1.3" fill="#C3CABF"/>
<circle cx="649.2" cy="750.8" r="1.3" fill="#C3CABF"/>
<circle cx="670.0" cy="750.8" r="1.3" fill="#C3CABF"/>
<circle cx="690.8" cy="750.8" r="1.3" fill="#C3CABF"/>
<path d="M 690.8 709.2 L 690.8 730.0 L 649.2 750.8" fill="none" stroke="#1B4DB3" stroke-width="4.0" stroke-linecap="round" stroke-linejoin="round"/>
<circle cx="690.8" cy="709.2" r="2.7" fill="#171A16"/>
<circle cx="690.8" cy="730.0" r="2.7" fill="#171A16"/>
<circle cx="649.2" cy="750.8" r="2.7" fill="#171A16"/>
<text x="670.0" y="768.4" text-anchor="middle" font-family="ui-monospace,Menlo,monospace" font-size="12" letter-spacing="2" fill="#171A16">220</text>
<text x="670.0" y="781.2" text-anchor="middle" font-family="Helvetica Neue,Arial,sans-serif" font-size="9.5" fill="#8A9184">reach-lo L</text>
<circle cx="109.2" cy="809.2" r="1.3" fill="#C3CABF"/>
<circle cx="130.0" cy="809.2" r="1.3" fill="#C3CABF"/>
<circle cx="150.8" cy="809.2" r="1.3" fill="#C3CABF"/>
<circle cx="109.2" cy="830.0" r="1.3" fill="#C3CABF"/>
<circle cx="130.0" cy="830.0" r="1.3" fill="#C3CABF"/>
<circle cx="150.8" cy="830.0" r="1.3" fill="#C3CABF"/>
<circle cx="109.2" cy="850.8" r="1.3" fill="#C3CABF"/>
<circle cx="130.0" cy="850.8" r="1.3" fill="#C3CABF"/>
<circle cx="150.8" cy="850.8" r="1.3" fill="#C3CABF"/>
<path d="M 109.2 809.2 L 150.8 830.0 L 130.0 850.8" fill="none" stroke="#1B4DB3" stroke-width="4.0" stroke-linecap="round" stroke-linejoin="round"/>
<circle cx="109.2" cy="809.2" r="2.7" fill="#171A16"/>
<circle cx="150.8" cy="830.0" r="2.7" fill="#171A16"/>
<circle cx="130.0" cy="850.8" r="2.7" fill="#171A16"/>
<text x="130.0" y="868.4" text-anchor="middle" font-family="ui-monospace,Menlo,monospace" font-size="12" letter-spacing="2" fill="#171A16">021</text>
<text x="130.0" y="881.2" text-anchor="middle" font-family="Helvetica Neue,Arial,sans-serif" font-size="9.5" fill="#8A9184">hook R</text>
<circle cx="289.2" cy="809.2" r="1.3" fill="#C3CABF"/>
<circle cx="310.0" cy="809.2" r="1.3" fill="#C3CABF"/>
<circle cx="330.8" cy="809.2" r="1.3" fill="#C3CABF"/>
<circle cx="289.2" cy="830.0" r="1.3" fill="#C3CABF"/>
<circle cx="310.0" cy="830.0" r="1.3" fill="#C3CABF"/>
<circle cx="330.8" cy="830.0" r="1.3" fill="#C3CABF"/>
<circle cx="289.2" cy="850.8" r="1.3" fill="#C3CABF"/>
<circle cx="310.0" cy="850.8" r="1.3" fill="#C3CABF"/>
<circle cx="330.8" cy="850.8" r="1.3" fill="#C3CABF"/>
<path d="M 330.8 809.2 L 289.2 830.0 L 310.0 850.8" fill="none" stroke="#1B4DB3" stroke-width="4.0" stroke-linecap="round" stroke-linejoin="round"/>
<circle cx="330.8" cy="809.2" r="2.7" fill="#171A16"/>
<circle cx="289.2" cy="830.0" r="2.7" fill="#171A16"/>
<circle cx="310.0" cy="850.8" r="2.7" fill="#171A16"/>
<text x="310.0" y="868.4" text-anchor="middle" font-family="ui-monospace,Menlo,monospace" font-size="12" letter-spacing="2" fill="#171A16">201</text>
<text x="310.0" y="881.2" text-anchor="middle" font-family="Helvetica Neue,Arial,sans-serif" font-size="9.5" fill="#8A9184">hook L</text>
<circle cx="469.2" cy="809.2" r="1.3" fill="#C3CABF"/>
<circle cx="490.0" cy="809.2" r="1.3" fill="#C3CABF"/>
<circle cx="510.8" cy="809.2" r="1.3" fill="#C3CABF"/>
<circle cx="469.2" cy="830.0" r="1.3" fill="#C3CABF"/>
<circle cx="490.0" cy="830.0" r="1.3" fill="#C3CABF"/>
<circle cx="510.8" cy="830.0" r="1.3" fill="#C3CABF"/>
<circle cx="469.2" cy="850.8" r="1.3" fill="#C3CABF"/>
<circle cx="490.0" cy="850.8" r="1.3" fill="#C3CABF"/>
<circle cx="510.8" cy="850.8" r="1.3" fill="#C3CABF"/>
<path d="M 490.0 809.2 L 469.2 830.0 L 510.8 850.8" fill="none" stroke="#1B4DB3" stroke-width="4.0" stroke-linecap="round" stroke-linejoin="round"/>
<circle cx="490.0" cy="809.2" r="2.7" fill="#171A16"/>
<circle cx="469.2" cy="830.0" r="2.7" fill="#171A16"/>
<circle cx="510.8" cy="850.8" r="2.7" fill="#171A16"/>
<text x="490.0" y="868.4" text-anchor="middle" font-family="ui-monospace,Menlo,monospace" font-size="12" letter-spacing="2" fill="#171A16">102</text>
<text x="490.0" y="881.2" text-anchor="middle" font-family="Helvetica Neue,Arial,sans-serif" font-size="9.5" fill="#8A9184">jog R</text>
<circle cx="649.2" cy="809.2" r="1.3" fill="#C3CABF"/>
<circle cx="670.0" cy="809.2" r="1.3" fill="#C3CABF"/>
<circle cx="690.8" cy="809.2" r="1.3" fill="#C3CABF"/>
<circle cx="649.2" cy="830.0" r="1.3" fill="#C3CABF"/>
<circle cx="670.0" cy="830.0" r="1.3" fill="#C3CABF"/>
<circle cx="690.8" cy="830.0" r="1.3" fill="#C3CABF"/>
<circle cx="649.2" cy="850.8" r="1.3" fill="#C3CABF"/>
<circle cx="670.0" cy="850.8" r="1.3" fill="#C3CABF"/>
<circle cx="690.8" cy="850.8" r="1.3" fill="#C3CABF"/>
<path d="M 670.0 809.2 L 690.8 830.0 L 649.2 850.8" fill="none" stroke="#1B4DB3" stroke-width="4.0" stroke-linecap="round" stroke-linejoin="round"/>
<circle cx="670.0" cy="809.2" r="2.7" fill="#171A16"/>
<circle cx="690.8" cy="830.0" r="2.7" fill="#171A16"/>
<circle cx="649.2" cy="850.8" r="2.7" fill="#171A16"/>
<text x="670.0" y="868.4" text-anchor="middle" font-family="ui-monospace,Menlo,monospace" font-size="12" letter-spacing="2" fill="#171A16">120</text>
<text x="670.0" y="881.2" text-anchor="middle" font-family="Helvetica Neue,Arial,sans-serif" font-size="9.5" fill="#8A9184">jog L</text>
<text x="56" y="910" font-family="Helvetica Neue,Arial,sans-serif" font-size="10.5" fill="#8A9184">19 shapes total · 9 mirror pairs + the line · attach string-set + base fret to place any glyph</text>
</svg>